<svg width="21" height="22" viewBox="0 0 21 22" fill="none" xmlns="http://www.w3.org/2000/svg">
<path id="Vector" d="M2.1 5.64286V18.4669L7.418 16.2963L13.718 19.2963L18.9 17.1812V4.35714L20.2681 3.7987C20.5347 3.68992 20.8433 3.80749 20.9576 4.06131C20.9855 4.12355 21 4.19056 21 4.25827V18.5L13.65 21.5L7.35 18.5L0.731808 21.2013C0.465297 21.3101 0.156671 21.1925 0.0424516 20.9387C0.0144376 20.8765 0 20.8094 0 20.7417V6.5L2.1 5.64286ZM14.9547 10.7426L10.5 14.9853L6.04523 10.7426C3.58492 8.39949 3.58492 4.60051 6.04523 2.25736C8.50552 -0.0857866 12.4945 -0.0857866 14.9547 2.25736C17.4151 4.60051 17.4151 8.39949 14.9547 10.7426ZM10.5 12.1569L13.4698 9.32843C15.11 7.76633 15.11 5.23367 13.4698 3.67157C11.8296 2.10948 9.17038 2.10948 7.53015 3.67157C5.88995 5.23367 5.88995 7.76633 7.53015 9.32843L10.5 12.1569Z" fill="black"/>
</svg>
