<svg width="21" height="22" viewBox="0 0 21 22" fill="none" xmlns="http://www.w3.org/2000/svg">
<path id="Vector" d="M2.0271 14.5V2.5H0V0.5H3.04066C3.60043 0.5 4.05421 0.94772 4.05421 1.5V13.5H16.6612L18.6883 5.5H6.08131V3.5H19.9864C20.5462 3.5 21 3.94772 21 4.5C21 4.58176 20.9899 4.66322 20.9697 4.74254L18.4358 14.7425C18.3231 15.1877 17.9177 15.5 17.4526 15.5H3.04066C2.48089 15.5 2.0271 15.0523 2.0271 14.5ZM4.05421 21.5C2.93467 21.5 2.0271 20.6046 2.0271 19.5C2.0271 18.3954 2.93467 17.5 4.05421 17.5C5.17375 17.5 6.08131 18.3954 6.08131 19.5C6.08131 20.6046 5.17375 21.5 4.05421 21.5ZM16.2168 21.5C15.0973 21.5 14.1897 20.6046 14.1897 19.5C14.1897 18.3954 15.0973 17.5 16.2168 17.5C17.3364 17.5 18.2439 18.3954 18.2439 19.5C18.2439 20.6046 17.3364 21.5 16.2168 21.5Z" fill="white"/>
</svg>
