<svg width="20" height="20" viewBox="0 0 20 20" fill="none" xmlns="http://www.w3.org/2000/svg">
<path id="Vector" d="M19.203 9H17.2827V2H1.9203V15.3851L3.61287 14H9.60149V16H4.27703L0 19.5V1C0 0.44772 0.429878 0 0.960149 0H18.2428C18.7731 0 19.203 0.44772 19.203 1V9ZM11.661 16.071C11.5703 15.7301 11.5218 15.371 11.5218 15C11.5218 14.629 11.5703 14.2699 11.661 13.929L10.7248 13.366L11.6849 11.634L12.622 12.1975C13.1036 11.6867 13.7158 11.31 14.4022 11.126V10H16.3225V11.126C17.0089 11.31 17.6211 11.6867 18.1027 12.1975L19.0399 11.634L20 13.366L19.0638 13.929C19.1545 14.2699 19.203 14.629 19.203 15C19.203 15.371 19.1545 15.7301 19.0638 16.071L20 16.634L19.0399 18.366L18.1027 17.8025C17.6211 18.3133 17.0089 18.69 16.3225 18.874V20H14.4022V18.874C13.7158 18.69 13.1036 18.3133 12.622 17.8025L11.6849 18.366L10.7248 16.634L11.661 16.071ZM15.3624 17C16.423 17 17.2827 16.1046 17.2827 15C17.2827 13.8954 16.423 13 15.3624 13C14.3018 13 13.4421 13.8954 13.4421 15C13.4421 16.1046 14.3018 17 15.3624 17Z" fill="white"/>
</svg>
