<svg width="20" height="12" viewBox="0 0 20 12" fill="none" xmlns="http://www.w3.org/2000/svg">
<path d="M7.54486 12L5.76015 11.4896L6.48764 8.59222C5.3891 8.16039 4.37974 7.53178 3.49706 6.7466L1.50774 8.86955L0.201248 7.47528L2.19057 5.35233C1.09015 3.94357 0.318131 2.2324 0 0.352787L1.81818 0C2.5194 4.14302 5.9158 7.2856 9.99996 7.2856C14.0841 7.2856 17.4806 4.14302 18.1818 0L20 0.352787C19.6818 2.2324 18.9098 3.94357 17.8094 5.35233L19.7987 7.47528L18.4922 8.86955L16.5029 6.7466C15.6202 7.53178 14.6108 8.16039 13.5123 8.59222L14.2398 11.4896L12.4551 12L11.7273 9.10134C11.1659 9.20397 10.5888 9.25741 9.99996 9.25741C9.4112 9.25741 8.83399 9.20397 8.27267 9.10134L7.54486 12Z" fill="#D8D8D8"/>
</svg>
