<svg width="50" height="38" viewBox="0 0 50 38" fill="none" xmlns="http://www.w3.org/2000/svg">
<path d="M4.44 34.7245C1.5511 31.6858 0 28.2755 0 22.7473C0 13.0244 6.88824 4.30789 16.9102 0L19.4134 3.82758C10.0611 8.84153 8.23327 15.3447 7.50269 19.4457C9.00845 18.6741 10.9796 18.4027 12.9119 18.5802C17.9715 19.045 21.9593 23.1604 21.9593 28.2755C21.9593 33.6462 17.5652 38 12.1449 38C9.13595 38 6.25858 36.6372 4.44 34.7245ZM32.4807 34.7245C29.592 31.6858 28.0407 28.2755 28.0407 22.7473C28.0407 13.0244 34.9289 4.30789 44.951 0L47.4542 3.82758C38.1018 8.84153 36.2741 15.3447 35.5433 19.4457C37.0491 18.6741 39.0204 18.4027 40.9527 18.5802C46.0123 19.045 50 23.1604 50 28.2755C50 33.6462 45.606 38 40.1857 38C37.1767 38 34.2994 36.6372 32.4807 34.7245Z" fill="#E9E9E9"/>
</svg>
