<svg width="82" height="133" viewBox="0 0 82 133" fill="none" xmlns="http://www.w3.org/2000/svg">
<g id="Vector">
<path d="M39.224 40.5286C39.4382 41.96 38.3569 43.1169 36.7677 43.1181C35.3247 43.1181 33.8804 43.1181 32.4348 43.1181C30.8508 43.1181 29.7617 41.96 29.9811 40.5286C31.6983 27.931 31.6983 15.1859 29.9811 2.58833C29.7643 1.15809 30.8534 0 32.4348 0C33.8817 0 35.3247 0 36.7677 0C38.3595 0 39.4382 1.15809 39.224 2.58833C37.5068 15.1859 37.5094 27.931 39.224 40.5286Z" fill="#216BFF"/>
<path d="M39.224 85.4701C39.4382 86.9004 38.3569 88.0585 36.7677 88.0597C35.3247 88.0597 33.8804 88.0597 32.4348 88.0597C30.8508 88.0597 29.7617 86.9004 29.9811 85.4701C31.6983 72.8725 31.6983 60.1275 29.9811 47.5299C29.7643 46.0996 30.8534 44.9403 32.4348 44.9403C33.8817 44.9403 35.3247 44.9403 36.7677 44.9403C38.3595 44.9403 39.4382 46.0996 39.224 47.5299C37.5068 60.1275 37.5094 72.8725 39.224 85.4701Z" fill="#216BFF"/>
<path d="M39.224 130.412C39.4382 131.842 38.3569 132.999 36.7677 133C35.3247 133 33.8804 133 32.4348 133C30.8508 133 29.7617 131.842 29.9811 130.412C31.6983 117.814 31.6983 105.069 29.9811 92.4714C29.7643 91.04 30.8534 89.8831 32.4348 89.8831C33.8817 89.8831 35.3247 89.8831 36.7677 89.8831C38.3595 89.8831 39.4382 91.04 39.224 92.4714C37.5068 105.07 37.5094 117.815 39.224 130.412Z" fill="#216BFF"/>
<path d="M28.1816 40.8846C28.1333 40.6005 28.0367 40.2049 27.8904 39.7217C27.7651 39.2218 27.5509 38.6667 27.3014 38.0361C27.039 37.4127 26.7204 36.7305 26.3273 36.0244C25.9342 35.3195 25.4876 34.575 24.9522 33.8389C24.4325 33.092 23.8305 32.3475 23.1749 31.6078C21.8456 30.1392 20.2877 28.6958 18.6984 27.28C15.5173 24.4471 12.0085 21.8983 9.15384 20.1732C8.43953 19.7428 7.7709 19.3603 7.16889 19.0306C6.55122 18.7117 6.01319 18.436 5.5692 18.2082C4.6564 17.7754 4.10275 17.5524 4.10536 17.5524C3.94474 17.4877 3.75668 17.4769 3.58039 17.5344C3.21083 17.6567 3.01623 18.0296 3.14943 18.3689C3.14943 18.3689 3.35318 18.8904 3.76191 19.756C3.97869 20.178 4.24114 20.6898 4.5454 21.2773C4.86142 21.8515 5.23099 22.4917 5.65018 23.1751C7.32299 25.9073 9.85114 29.3001 12.7071 32.4099C14.1383 33.9648 15.597 35.4921 17.0987 36.8097C17.8587 37.4618 18.624 38.0637 19.4023 38.5924C20.1623 39.1331 20.9432 39.5958 21.6823 40.0046C22.4188 40.4134 23.141 40.7515 23.7991 41.0345C24.4677 41.3078 25.0541 41.5428 25.5895 41.6926C26.1053 41.8605 26.5258 41.9743 26.8314 42.0391C27.1252 42.1146 27.3002 42.1374 27.3002 42.1374C27.3563 42.1446 27.4177 42.147 27.4764 42.1434C27.9374 42.1134 28.2874 41.7442 28.2547 41.3198C28.2547 41.3198 28.243 41.1567 28.1816 40.8846Z" fill="#216BFF"/>
<path d="M28.2691 44.7425C28.085 44.5831 27.812 44.3745 27.4608 44.1335C27.1134 43.871 26.6798 43.6144 26.1823 43.3243C25.6822 43.0474 25.1141 42.7548 24.4834 42.4827C23.8566 42.2106 23.1723 41.9384 22.4384 41.7106C21.7071 41.4696 20.9236 41.267 20.11 41.0932C18.4777 40.7551 16.7122 40.5381 14.9427 40.3547C11.3973 39.9854 7.79571 39.9471 5.05469 40.1353C4.36911 40.1845 3.73838 40.2432 3.18078 40.3044C2.61664 40.3799 2.12431 40.4458 1.71949 40.501C0.905931 40.6376 0.435816 40.7455 0.435816 40.7455C0.2987 40.7755 0.170755 40.8546 0.091097 40.9709C-0.0799716 41.2155 -0.00294965 41.5428 0.262141 41.6986C0.262141 41.6986 0.672208 41.9384 1.39696 42.3053C1.75869 42.4779 2.20005 42.6841 2.71064 42.9226C3.21863 43.1444 3.79714 43.3866 4.42918 43.6336C6.95995 44.6166 10.3853 45.6381 13.8706 46.3298C15.6153 46.6739 17.3651 46.9892 19.0249 47.1498C19.8593 47.2229 20.6703 47.2613 21.4473 47.247C22.2229 47.2481 22.9647 47.1906 23.6555 47.1175C24.3436 47.0455 24.9849 46.9352 25.5555 46.8189C26.1275 46.6919 26.6263 46.5744 27.0481 46.4281C27.4686 46.3034 27.7977 46.1859 28.0249 46.09C28.2547 46.0061 28.3775 45.9402 28.3775 45.9402C28.418 45.9186 28.4571 45.8934 28.4924 45.8634C28.7732 45.6357 28.7954 45.2424 28.5486 44.9895C28.5499 44.9871 28.4519 44.8888 28.2691 44.7425Z" fill="#216BFF"/>
<path d="M28.1816 86.4412C28.1333 86.1571 28.0367 85.7614 27.8904 85.2783C27.7651 84.7784 27.5509 84.2233 27.3014 83.5927C27.039 82.9693 26.7204 82.2871 26.3273 81.581C25.9342 80.8761 25.4876 80.1316 24.9522 79.3955C24.4325 78.6486 23.8305 77.9041 23.1749 77.1644C21.8456 75.6958 20.2877 74.2524 18.6984 72.8366C15.5173 70.0037 12.0085 67.4549 9.15384 65.7297C8.43953 65.2993 7.7709 64.9169 7.16889 64.5872C6.55122 64.2683 6.01319 63.9926 5.5692 63.7648C4.6564 63.332 4.10275 63.109 4.10536 63.109C3.94474 63.0443 3.75668 63.0335 3.58039 63.091C3.21083 63.2133 3.01623 63.5862 3.14943 63.9254C3.14943 63.9254 3.35318 64.447 3.76191 65.3125C3.97869 65.7345 4.24114 66.2464 4.5454 66.8339C4.86142 67.4081 5.23099 68.0483 5.65018 68.7317C7.32299 71.4639 9.85114 74.8566 12.7071 77.9665C14.1383 79.5214 15.597 81.0487 17.0987 82.3662C17.8587 83.0184 18.624 83.6202 19.4023 84.1489C20.1623 84.6896 20.9432 85.1524 21.6823 85.5612C22.4188 85.97 23.141 86.3081 23.7991 86.591C24.4677 86.8644 25.0541 87.0993 25.5895 87.2492C26.1053 87.417 26.5258 87.5309 26.8314 87.5957C27.1252 87.6712 27.3002 87.694 27.3002 87.694C27.3563 87.7012 27.4177 87.7036 27.4764 87.7C27.9374 87.67 28.2874 87.3008 28.2547 86.8764C28.2547 86.8764 28.243 86.7133 28.1816 86.4412Z" fill="#216BFF"/>
<path d="M28.2691 90.2991C28.085 90.1396 27.812 89.931 27.4608 89.6901C27.1134 89.4275 26.6798 89.171 26.1823 88.8809C25.6822 88.6039 25.1141 88.3114 24.4834 88.0393C23.8566 87.7671 23.1723 87.495 22.4384 87.2672C21.7071 87.0262 20.9236 86.8236 20.11 86.6498C18.4777 86.3117 16.7122 86.0947 14.9427 85.9113C11.3973 85.542 7.79571 85.5037 5.05469 85.6919C4.36911 85.741 3.73838 85.7998 3.18078 85.8609C2.61664 85.9364 2.12431 86.0024 1.71949 86.0575C0.905931 86.1942 0.435816 86.3021 0.435816 86.3021C0.2987 86.3321 0.170755 86.4112 0.091097 86.5275C-0.0799716 86.772 -0.00294965 87.0993 0.262141 87.2552C0.262141 87.2552 0.672208 87.495 1.39696 87.8618C1.75869 88.0345 2.20005 88.2406 2.71064 88.4792C3.21863 88.701 3.79714 88.9432 4.42918 89.1902C6.95995 90.1732 10.3853 91.1946 13.8706 91.8864C15.6153 92.2305 17.3651 92.5457 19.0249 92.7064C19.8593 92.7795 20.6703 92.8179 21.4473 92.8035C22.2229 92.8047 22.9647 92.7472 23.6555 92.674C24.3436 92.6021 24.9849 92.4918 25.5555 92.3755C26.1275 92.2484 26.6263 92.1309 27.0481 91.9847C27.4686 91.86 27.7977 91.7425 28.0249 91.6466C28.2547 91.5627 28.3775 91.4967 28.3775 91.4967C28.418 91.4752 28.4571 91.45 28.4924 91.42C28.7732 91.1922 28.7954 90.799 28.5486 90.546C28.5499 90.5436 28.4519 90.4453 28.2691 90.2991Z" fill="#216BFF"/>
<path d="M53.8197 63.5778C53.868 63.2936 53.9621 62.898 54.111 62.4149C54.2363 61.9149 54.4505 61.3599 54.6999 60.7293C54.9624 60.1059 55.2784 59.4237 55.6714 58.7176C56.0645 58.0127 56.5137 57.2682 57.0492 56.5321C57.5689 55.7852 58.1709 55.0407 58.8264 54.301C60.1532 52.8324 61.7111 51.389 63.3003 49.9731C66.484 47.1402 69.9929 44.5915 72.8462 42.8663C73.5605 42.4359 74.2291 42.0535 74.8311 41.7238C75.4488 41.4049 75.9868 41.1292 76.4308 40.9014C77.3436 40.4686 77.8947 40.2456 77.8947 40.2456C78.0553 40.1809 78.2447 40.1689 78.4197 40.2276C78.7892 40.3499 78.9838 40.7227 78.8506 41.062C78.848 41.062 78.6469 41.5835 78.2381 42.4491C78.0214 42.8711 77.7589 43.383 77.4546 43.9705C77.1386 44.5447 76.7691 45.1849 76.3499 45.8682C74.6744 48.6004 72.1489 51.9932 69.2929 55.103C67.8617 56.658 66.4031 58.1853 64.9013 59.5029C64.1413 60.155 63.3735 60.7569 62.5978 61.2856C61.8351 61.8262 61.0568 62.289 60.3177 62.6978C59.5786 63.1066 58.8591 63.4447 58.2009 63.7276C57.5323 64.0022 56.9434 64.2359 56.4106 64.3858C55.8947 64.5536 55.4717 64.6675 55.1687 64.7323C54.8749 64.8078 54.6999 64.8306 54.6999 64.8306C54.6437 64.8378 54.5823 64.8402 54.5236 64.8366C54.06 64.8066 53.7126 64.4373 53.7453 64.0129C53.7453 64.0129 53.7583 63.8511 53.8197 63.5778Z" fill="#216BFF"/>
<path d="M53.7335 67.4369C53.915 67.2775 54.1879 67.0689 54.5392 66.8279C54.8866 66.5653 55.3227 66.3088 55.8177 66.0187C56.3204 65.7417 56.8859 65.4492 57.5166 65.1771C58.1434 64.9049 58.8277 64.6328 59.5616 64.405C60.2968 64.164 61.0764 63.9614 61.89 63.7876C63.5223 63.4495 65.2865 63.2325 67.0599 63.0491C70.6027 62.6799 74.2043 62.6415 76.9479 62.8297C77.6322 62.8789 78.2616 62.9376 78.8231 62.9987C79.3873 63.0743 79.8796 63.1402 80.2818 63.1953C81.0954 63.332 81.5668 63.4399 81.5668 63.4399C81.7026 63.4699 81.8293 63.549 81.9089 63.6653C82.08 63.9099 82.0029 64.2372 81.7378 64.393C81.7378 64.393 81.3291 64.6328 80.6056 64.9996C80.2413 65.1723 79.7999 65.3785 79.292 65.6171C78.7814 65.84 78.2029 66.081 77.5708 66.328C75.0401 67.311 71.6148 68.3325 68.1294 69.0242C66.3848 69.3683 64.6375 69.6836 62.9777 69.8442C62.1407 69.9174 61.3324 69.9557 60.5527 69.9413C59.7797 69.9425 59.0353 69.885 58.3458 69.8119C57.655 69.7387 57.0138 69.6296 56.4432 69.5134C55.8712 69.3851 55.3724 69.2688 54.9506 69.1225C54.5327 68.9966 54.201 68.8803 53.9738 68.7844C53.7466 68.7005 53.6225 68.6346 53.6225 68.6346C53.5846 68.613 53.5429 68.5878 53.5076 68.559C53.2295 68.3313 53.2033 67.938 53.4515 67.6839C53.4501 67.6815 53.5468 67.5832 53.7335 67.4369Z" fill="#216BFF"/>
<path d="M53.8197 109.134C53.868 108.85 53.9621 108.455 54.111 107.971C54.2363 107.472 54.4505 106.916 54.6999 106.286C54.9624 105.662 55.2784 104.98 55.6714 104.274C56.0645 103.569 56.5137 102.825 57.0492 102.089C57.5689 101.342 58.1709 100.597 58.8264 99.8576C60.1532 98.389 61.7111 96.9456 63.3003 95.5297C66.484 92.6968 69.9929 90.148 72.8462 88.4229C73.5605 87.9925 74.2291 87.61 74.8311 87.2804C75.4488 86.9615 75.9868 86.6858 76.4308 86.458C77.3436 86.0252 77.8947 85.8022 77.8947 85.8022C78.0553 85.7374 78.2447 85.7255 78.4197 85.7842C78.7892 85.9065 78.9838 86.2793 78.8506 86.6186C78.848 86.6186 78.6469 87.1401 78.2381 88.0057C78.0214 88.4277 77.7589 88.9396 77.4546 89.527C77.1386 90.1013 76.7691 90.7415 76.3499 91.4248C74.6744 94.157 72.1489 97.5498 69.2929 100.66C67.8617 102.215 66.4031 103.742 64.9013 105.059C64.1413 105.712 63.3735 106.313 62.5978 106.842C61.8351 107.383 61.0568 107.846 60.3177 108.254C59.5786 108.663 58.8591 109.001 58.2009 109.284C57.5323 109.559 56.9434 109.793 56.4106 109.942C55.8947 110.11 55.4717 110.224 55.1687 110.289C54.8749 110.364 54.6999 110.387 54.6999 110.387C54.6437 110.394 54.5823 110.397 54.5236 110.393C54.06 110.363 53.7126 109.994 53.7453 109.57C53.7453 109.57 53.7583 109.408 53.8197 109.134Z" fill="#216BFF"/>
<path d="M53.7335 112.993C53.915 112.834 54.1879 112.625 54.5392 112.384C54.8866 112.122 55.3227 111.865 55.8177 111.575C56.3204 111.298 56.8859 111.006 57.5166 110.734C58.1434 110.462 58.8277 110.189 59.5616 109.962C60.2968 109.721 61.0764 109.518 61.89 109.344C63.5223 109.006 65.2865 108.789 67.0599 108.606C70.6027 108.236 74.2043 108.198 76.9479 108.386C77.6322 108.435 78.2616 108.494 78.8231 108.555C79.3873 108.631 79.8796 108.697 80.2818 108.752C81.0954 108.889 81.5668 108.996 81.5668 108.996C81.7026 109.026 81.8293 109.106 81.9089 109.222C82.08 109.466 82.0029 109.794 81.7378 109.95C81.7378 109.95 81.3291 110.189 80.6056 110.556C80.2413 110.729 79.7999 110.935 79.292 111.174C78.7814 111.397 78.2029 111.638 77.5708 111.885C75.0401 112.868 71.6148 113.889 68.1294 114.581C66.3848 114.925 64.6375 115.24 62.9777 115.401C62.1407 115.474 61.3324 115.512 60.5527 115.498C59.7797 115.499 59.0353 115.442 58.3458 115.368C57.655 115.295 57.0138 115.186 56.4432 115.07C55.8712 114.942 55.3724 114.825 54.9506 114.679C54.5327 114.553 54.201 114.437 53.9738 114.341C53.7466 114.257 53.6225 114.191 53.6225 114.191C53.5846 114.17 53.5429 114.144 53.5076 114.116C53.2295 113.888 53.2033 113.495 53.4515 113.24C53.4501 113.238 53.5468 113.14 53.7335 112.993Z" fill="#216BFF"/>
<path d="M45.2323 110.983C46.6779 110.983 48.1196 110.983 49.5652 110.983C51.1518 110.983 52.2383 109.824 52.0189 108.393C50.3043 95.7959 50.3043 83.0508 52.0189 70.4532C52.2357 69.023 51.1492 67.8637 49.5652 67.8637C48.1196 67.8637 46.6779 67.8637 45.2323 67.8637C43.6431 67.8637 42.5618 69.023 42.7786 70.4532C44.4932 83.0508 44.4906 95.7959 42.7786 108.393C42.5645 109.824 43.6457 110.982 45.2323 110.983Z" fill="#216BFF"/>
<path d="M49.5652 112.577C48.1196 112.577 46.6779 112.577 45.2323 112.577C43.6431 112.577 42.5618 113.734 42.7786 115.166C43.5843 121.088 43.9957 127.043 44.044 133H50.7522C50.8005 127.043 51.2145 121.088 52.0202 115.166C52.2357 113.734 51.1492 112.577 49.5652 112.577Z" fill="#216BFF"/>
<path d="M42.7786 18.9695C42.5644 20.3997 43.6457 21.5566 45.2323 21.5578C46.6779 21.5578 48.1196 21.5578 49.5652 21.5578C51.1518 21.5578 52.2383 20.3997 52.0189 18.9695C51.1623 12.6707 50.7339 6.33596 50.7339 0H44.0649C44.0649 6.33596 43.6326 12.6707 42.7786 18.9695Z" fill="#216BFF"/>
<path d="M49.5652 23.1535C48.1196 23.1535 46.6779 23.1535 45.2323 23.1535C43.6431 23.1535 42.5618 24.3116 42.7786 25.7418C44.4932 38.3394 44.4906 51.0845 42.7786 63.6821C42.5645 65.1135 43.6457 66.2704 45.2323 66.2716C46.6779 66.2716 48.1196 66.2716 49.5652 66.2716C51.1518 66.2716 52.2383 65.1135 52.0189 63.6821C50.3043 51.0845 50.3043 38.3394 52.0189 25.7418C52.2357 24.3104 51.1492 23.1535 49.5652 23.1535Z" fill="#216BFF"/>
</g>
</svg>
