<svg width="114" height="58" viewBox="0 0 114 58" fill="none" xmlns="http://www.w3.org/2000/svg">
<g clip-path="url(#clip0_211_1842)">
<path d="M0 58.0002C0 47.371 8.50625 38.7543 18.9992 38.7543M18.9992 38.7543C29.4946 38.7543 38.0008 47.371 38.0008 58.0002C38.0008 47.371 46.5071 38.7543 57 38.7543M18.9992 38.7543C18.9992 28.1251 27.5054 19.5084 37.9984 19.5084C48.4938 19.5084 57 28.1251 57 38.7543M4.92973 58.0002C4.92973 50.1288 11.2287 43.7481 18.9992 43.7481C26.7721 43.7481 33.0711 50.1288 33.0711 58.0002M9.85946 58.0002C9.85946 52.8866 13.9511 48.7418 18.9992 48.7418C24.0497 48.7418 28.1414 52.8866 28.1414 58.0002M57 38.7543C67.4929 38.7543 75.9992 47.371 75.9992 58.0002C75.9992 47.371 84.5054 38.7543 94.9984 38.7543M57 38.7543C57 28.1251 65.5063 19.5084 75.9992 19.5084C86.4921 19.5084 94.9984 28.1251 94.9984 38.7543M42.9306 58.0002C42.9306 50.1288 49.2295 43.7481 57 43.7481C64.7705 43.7481 71.0695 50.1288 71.0695 58.0002M47.8603 58.0002C47.8603 52.8866 51.9519 48.7418 57 48.7418C62.048 48.7418 66.1397 52.8866 66.1397 58.0002M94.9984 38.7543C105.494 38.7543 114 47.371 114 58.0002M80.9289 58.0002C80.9289 50.1288 87.2279 43.7481 94.9984 43.7481C102.771 43.7481 109.07 50.1288 109.07 58.0002M85.8587 58.0002C85.8587 52.8866 89.9503 48.7418 94.9984 48.7418C100.049 48.7418 104.141 52.8866 104.141 58.0002M38.0008 19.2462C38.0008 8.61699 46.5071 0.000244141 57 0.000244141C67.4929 0.000244141 75.9992 8.61699 75.9992 19.2462M42.9306 19.2462C42.9306 11.3748 49.2295 4.994 57 4.994C64.7705 4.994 71.0695 11.3748 71.0695 19.2462M47.8603 21.823V19.2462C47.8603 14.1326 51.9519 9.98776 57 9.98776C62.048 9.98776 66.1397 14.1326 66.1397 19.2462V22.2999M61.9297 38.7543C61.9297 30.8829 68.2287 24.5021 75.9992 24.5021C83.7697 24.5021 90.0686 30.8829 90.0686 38.7543M66.8594 41.5446V38.7543C66.8594 33.6407 70.9511 29.4959 75.9992 29.4959C81.0472 29.4959 85.1389 33.6407 85.1389 38.7543V41.5458M23.9289 38.7543C23.9289 30.8829 30.2279 24.5021 37.9984 24.5021C45.7713 24.5021 52.0703 30.8829 52.0703 38.7543M28.8586 41.5446V38.7543C28.8586 33.6407 32.9503 29.4959 37.9984 29.4959C43.0489 29.4959 47.1405 33.6407 47.1405 38.7543V41.5446" stroke="#216BFF" stroke-width="1.72" stroke-miterlimit="10"/>
</g>
<defs>
<clipPath id="clip0_211_1842">
<rect width="114" height="58" fill="white" transform="translate(0 0.000244141)"/>
</clipPath>
</defs>
</svg>
